<svg xmlns="http://www.w3.org/2000/svg" xmlns:xlink="http://www.w3.org/1999/xlink" width="500" zoomAndPan="magnify" viewBox="0 0 375 374.999991" height="500" preserveAspectRatio="xMidYMid meet" version="1.0"><defs><g/><clipPath id="2b349aeeb6"><path d="M 43.410156 136.328125 L 106 136.328125 L 106 210 L 43.410156 210 Z M 43.410156 136.328125 " clip-rule="nonzero"/></clipPath></defs><g clip-path="url(#2b349aeeb6)"><path fill="#ffffff" d="M 100.394531 167.273438 L 89.554688 161.007812 L 89.554688 136.328125 L 85.488281 136.328125 L 85.488281 175.136719 C 85.421875 180.179688 80.980469 183.445312 76.402344 182.070312 C 73.183594 181.09375 70.960938 177.78125 71.359375 174.492188 C 71.804688 170.917969 74.847656 167.808594 78.402344 168.316406 C 80.644531 168.628906 81.78125 168.230469 82.289062 167.25 L 82.289062 153.367188 C 81.890625 152.613281 81.089844 152.5 79.625 153.34375 C 79.070312 153.675781 78.492188 153.988281 77.9375 154.320312 C 73.492188 156.875 69.050781 159.476562 64.585938 161.988281 C 63.316406 162.699219 63.207031 163.742188 63.183594 164.851562 L 63.183594 180.804688 C 63.207031 183.425781 62.386719 185.644531 60.253906 187.222656 C 57.742188 189.066406 54.855469 189.535156 52.164062 187.980469 C 49.433594 186.402344 48.277344 181.957031 49.34375 179.027344 C 50.386719 176.160156 53.742188 173.78125 56.765625 174.539062 C 59.074219 175.117188 59.785156 174.539062 59.984375 173.226562 L 59.984375 149.34375 C 59.984375 149.34375 61.941406 148.257812 64.761719 146.703125 L 56.164062 141.726562 C 49.167969 137.683594 43.433594 140.992188 43.433594 149.078125 L 43.433594 200.152344 C 43.433594 208.238281 49.167969 211.550781 56.164062 207.507812 L 100.394531 181.957031 C 107.417969 177.9375 107.417969 171.316406 100.394531 167.273438 Z M 100.394531 167.273438 " fill-opacity="1" fill-rule="nonzero"/></g><g fill="#ffffff" fill-opacity="1"><g transform="translate(114.680848, 183.695935)"><g><path d="M 22.046875 -10.09375 C 22.046875 -9.570312 22.007812 -9.039062 21.9375 -8.5 L 6.796875 -8.5 C 7.015625 -7.132812 7.554688 -6.085938 8.421875 -5.359375 C 9.296875 -4.628906 10.382812 -4.265625 11.6875 -4.265625 C 12.632812 -4.265625 13.476562 -4.46875 14.21875 -4.875 C 14.957031 -5.289062 15.523438 -5.859375 15.921875 -6.578125 L 21.640625 -6.578125 C 20.898438 -4.390625 19.640625 -2.648438 17.859375 -1.359375 C 16.078125 -0.078125 14.019531 0.5625 11.6875 0.5625 C 9.707031 0.5625 7.929688 0.0976562 6.359375 -0.828125 C 4.796875 -1.765625 3.5625 -3.03125 2.65625 -4.625 C 1.75 -6.21875 1.296875 -8.019531 1.296875 -10.03125 C 1.296875 -12.03125 1.75 -13.828125 2.65625 -15.421875 C 3.5625 -17.015625 4.796875 -18.273438 6.359375 -19.203125 C 7.929688 -20.140625 9.707031 -20.609375 11.6875 -20.609375 C 13.75 -20.609375 15.554688 -20.128906 17.109375 -19.171875 C 18.671875 -18.222656 19.882812 -16.957031 20.75 -15.375 C 21.613281 -13.789062 22.046875 -12.03125 22.046875 -10.09375 Z M 11.6875 -16 C 10.476562 -16 9.457031 -15.664062 8.625 -15 C 7.800781 -14.332031 7.238281 -13.40625 6.9375 -12.21875 L 16.625 -12.21875 C 15.832031 -14.738281 14.1875 -16 11.6875 -16 Z M 11.6875 -16 "/></g></g></g><g fill="#ffffff" fill-opacity="1"><g transform="translate(135.878511, 183.695935)"><g><path d="M 14.890625 0.5625 C 12.984375 0.5625 11.210938 0.222656 9.578125 -0.453125 C 7.941406 -1.140625 6.515625 -2.09375 5.296875 -3.3125 C 4.085938 -4.539062 3.148438 -5.976562 2.484375 -7.625 C 1.816406 -9.269531 1.484375 -11.046875 1.484375 -12.953125 C 1.484375 -14.890625 1.816406 -16.6875 2.484375 -18.34375 C 3.148438 -20 4.085938 -21.4375 5.296875 -22.65625 C 6.515625 -23.882812 7.941406 -24.835938 9.578125 -25.515625 C 11.210938 -26.203125 12.984375 -26.546875 14.890625 -26.546875 C 16.992188 -26.546875 18.921875 -26.113281 20.671875 -25.25 C 22.429688 -24.382812 23.90625 -23.171875 25.09375 -21.609375 C 26.28125 -20.046875 27.070312 -18.238281 27.46875 -16.1875 L 21.828125 -16.1875 C 21.304688 -17.71875 20.425781 -18.9375 19.1875 -19.84375 C 17.957031 -20.75 16.523438 -21.203125 14.890625 -21.203125 C 13.429688 -21.203125 12.117188 -20.835938 10.953125 -20.109375 C 9.785156 -19.378906 8.863281 -18.394531 8.1875 -17.15625 C 7.507812 -15.914062 7.171875 -14.515625 7.171875 -12.953125 C 7.171875 -11.398438 7.507812 -10.007812 8.1875 -8.78125 C 8.863281 -7.550781 9.785156 -6.578125 10.953125 -5.859375 C 12.117188 -5.148438 13.429688 -4.796875 14.890625 -4.796875 C 16.597656 -4.796875 18.066406 -5.273438 19.296875 -6.234375 C 20.535156 -7.203125 21.390625 -8.515625 21.859375 -10.171875 L 27.546875 -10.171875 C 27.148438 -8.015625 26.363281 -6.128906 25.1875 -4.515625 C 24.007812 -2.910156 22.535156 -1.660156 20.765625 -0.765625 C 18.992188 0.117188 17.035156 0.5625 14.890625 0.5625 Z M 14.890625 0.5625 "/></g></g></g><g fill="#ffffff" fill-opacity="1"><g transform="translate(162.385046, 183.695935)"><g><path d="M 18.375 -25.984375 L 23.984375 -25.984375 L 23.984375 0 L 18.375 0 L 18.375 -10.734375 L 8.609375 -10.734375 L 8.609375 0 L 2.96875 0 L 2.96875 -25.984375 L 8.609375 -25.984375 L 8.609375 -15.96875 L 18.375 -15.96875 Z M 18.375 -25.984375 "/></g></g></g><g fill="#ffffff" fill-opacity="1"><g transform="translate(187.258085, 183.695935)"><g><path d="M 12.140625 0.5625 C 10.054688 0.5625 8.195312 0.0976562 6.5625 -0.828125 C 4.9375 -1.765625 3.648438 -3.03125 2.703125 -4.625 C 1.765625 -6.21875 1.296875 -8.019531 1.296875 -10.03125 C 1.296875 -12.050781 1.765625 -13.859375 2.703125 -15.453125 C 3.648438 -17.054688 4.9375 -18.316406 6.5625 -19.234375 C 8.195312 -20.148438 10.054688 -20.609375 12.140625 -20.609375 C 14.191406 -20.609375 16.035156 -20.148438 17.671875 -19.234375 C 19.304688 -18.316406 20.59375 -17.054688 21.53125 -15.453125 C 22.46875 -13.859375 22.9375 -12.050781 22.9375 -10.03125 C 22.9375 -8.019531 22.46875 -6.21875 21.53125 -4.625 C 20.59375 -3.03125 19.304688 -1.765625 17.671875 -0.828125 C 16.035156 0.0976562 14.191406 0.5625 12.140625 0.5625 Z M 12.140625 -4.53125 C 13.703125 -4.53125 14.976562 -5.035156 15.96875 -6.046875 C 16.957031 -7.066406 17.453125 -8.394531 17.453125 -10.03125 C 17.453125 -11.65625 16.957031 -12.972656 15.96875 -13.984375 C 14.976562 -15.003906 13.703125 -15.515625 12.140625 -15.515625 C 10.554688 -15.515625 9.269531 -15.003906 8.28125 -13.984375 C 7.289062 -12.972656 6.796875 -11.65625 6.796875 -10.03125 C 6.796875 -8.394531 7.289062 -7.066406 8.28125 -6.046875 C 9.269531 -5.035156 10.554688 -4.53125 12.140625 -4.53125 Z M 12.140625 -4.53125 "/></g></g></g><g fill="#ffffff" fill-opacity="1"><g transform="translate(209.383862, 183.695935)"><g/></g></g><g fill="#ffffff" fill-opacity="1"><g transform="translate(216.139893, 183.695935)"><g><path d="M 25.390625 -20.53125 C 26.773438 -20.53125 28 -20.1875 29.0625 -19.5 C 30.132812 -18.820312 30.972656 -17.890625 31.578125 -16.703125 C 32.179688 -15.515625 32.484375 -14.140625 32.484375 -12.578125 L 32.484375 0 L 27.0625 0 L 27.0625 -11.6875 C 27.0625 -14.414062 26.046875 -15.78125 24.015625 -15.78125 C 22.828125 -15.78125 21.894531 -15.34375 21.21875 -14.46875 C 20.539062 -13.601562 20.203125 -12.394531 20.203125 -10.84375 L 20.203125 0 L 14.890625 0 L 14.890625 -11.6875 C 14.890625 -14.414062 13.910156 -15.78125 11.953125 -15.78125 C 10.710938 -15.78125 9.742188 -15.34375 9.046875 -14.46875 C 8.359375 -13.601562 8.015625 -12.394531 8.015625 -10.84375 L 8.015625 0 L 2.59375 0 L 2.59375 -20.046875 L 6.390625 -20.046875 L 7.390625 -17.5625 C 8.109375 -18.445312 8.992188 -19.160156 10.046875 -19.703125 C 11.097656 -20.253906 12.21875 -20.53125 13.40625 -20.53125 C 14.664062 -20.53125 15.800781 -20.242188 16.8125 -19.671875 C 17.832031 -19.109375 18.625 -18.316406 19.1875 -17.296875 C 19.882812 -18.285156 20.773438 -19.070312 21.859375 -19.65625 C 22.953125 -20.238281 24.128906 -20.53125 25.390625 -20.53125 Z M 25.390625 -20.53125 "/></g></g></g><g fill="#ffffff" fill-opacity="1"><g transform="translate(248.846293, 183.695935)"><g><path d="M 13.4375 0.5625 C 11.382812 0.5625 9.550781 0.125 7.9375 -0.75 C 6.332031 -1.632812 5.054688 -2.847656 4.109375 -4.390625 C 3.171875 -5.941406 2.703125 -7.734375 2.703125 -9.765625 L 2.703125 -25.984375 L 8.359375 -25.984375 L 8.359375 -10.03125 C 8.359375 -8.414062 8.832031 -7.128906 9.78125 -6.171875 C 10.738281 -5.222656 11.957031 -4.75 13.4375 -4.75 C 14.945312 -4.75 16.175781 -5.222656 17.125 -6.171875 C 18.082031 -7.128906 18.5625 -8.414062 18.5625 -10.03125 L 18.5625 -25.984375 L 24.171875 -25.984375 L 24.171875 -9.765625 C 24.171875 -7.734375 23.707031 -5.941406 22.78125 -4.390625 C 21.851562 -2.847656 20.578125 -1.632812 18.953125 -0.75 C 17.328125 0.125 15.488281 0.5625 13.4375 0.5625 Z M 13.4375 0.5625 "/></g></g></g><g fill="#ffffff" fill-opacity="1"><g transform="translate(273.607953, 183.695935)"><g><path d="M 11.578125 0.515625 C 9.597656 0.515625 7.851562 0.15625 6.34375 -0.5625 C 4.832031 -1.28125 3.648438 -2.304688 2.796875 -3.640625 C 1.941406 -4.972656 1.515625 -6.566406 1.515625 -8.421875 L 7.203125 -8.421875 C 7.203125 -7.160156 7.640625 -6.226562 8.515625 -5.625 C 9.398438 -5.019531 10.410156 -4.71875 11.546875 -4.71875 C 12.265625 -4.71875 12.9375 -4.832031 13.5625 -5.0625 C 14.195312 -5.300781 14.71875 -5.648438 15.125 -6.109375 C 15.53125 -6.566406 15.734375 -7.117188 15.734375 -7.765625 C 15.734375 -8.429688 15.5 -8.953125 15.03125 -9.328125 C 14.5625 -9.710938 13.929688 -10.03125 13.140625 -10.28125 C 12.347656 -10.53125 11.484375 -10.765625 10.546875 -10.984375 C 9.578125 -11.210938 8.582031 -11.484375 7.5625 -11.796875 C 6.550781 -12.117188 5.613281 -12.546875 4.75 -13.078125 C 3.882812 -13.617188 3.191406 -14.335938 2.671875 -15.234375 C 2.148438 -16.140625 1.890625 -17.285156 1.890625 -18.671875 C 1.890625 -21.171875 2.738281 -23.09375 4.4375 -24.4375 C 6.132812 -25.789062 8.429688 -26.46875 11.328125 -26.46875 C 14.296875 -26.46875 16.59375 -25.71875 18.21875 -24.21875 C 19.851562 -22.726562 20.671875 -20.691406 20.671875 -18.109375 L 15.109375 -18.109375 C 15.109375 -19.222656 14.710938 -20.046875 13.921875 -20.578125 C 13.128906 -21.117188 12.210938 -21.390625 11.171875 -21.390625 C 10.253906 -21.390625 9.410156 -21.191406 8.640625 -20.796875 C 7.878906 -20.398438 7.5 -19.78125 7.5 -18.9375 C 7.5 -18.3125 7.726562 -17.816406 8.1875 -17.453125 C 8.644531 -17.097656 9.25 -16.800781 10 -16.5625 C 10.757812 -16.332031 11.597656 -16.109375 12.515625 -15.890625 C 13.503906 -15.640625 14.515625 -15.347656 15.546875 -15.015625 C 16.585938 -14.679688 17.550781 -14.226562 18.4375 -13.65625 C 19.332031 -13.09375 20.054688 -12.335938 20.609375 -11.390625 C 21.171875 -10.453125 21.453125 -9.265625 21.453125 -7.828125 C 21.453125 -5.953125 21 -4.394531 20.09375 -3.15625 C 19.195312 -1.914062 18.003906 -0.992188 16.515625 -0.390625 C 15.035156 0.210938 13.390625 0.515625 11.578125 0.515625 Z M 11.578125 0.515625 "/></g></g></g><g fill="#ffffff" fill-opacity="1"><g transform="translate(294.471481, 183.695935)"><g><path d="M 2.59375 -22.71875 L 2.59375 -27.765625 L 8.015625 -27.765625 L 8.015625 -22.71875 Z M 2.59375 0 L 2.59375 -20.046875 L 8.015625 -20.046875 L 8.015625 0 Z M 2.59375 0 "/></g></g></g><g fill="#ffffff" fill-opacity="1"><g transform="translate(302.972392, 183.695935)"><g><path d="M 11.921875 0.5625 C 9.910156 0.5625 8.097656 0.09375 6.484375 -0.84375 C 4.878906 -1.789062 3.613281 -3.066406 2.6875 -4.671875 C 1.757812 -6.285156 1.296875 -8.09375 1.296875 -10.09375 C 1.296875 -12.101562 1.757812 -13.898438 2.6875 -15.484375 C 3.613281 -17.066406 4.878906 -18.316406 6.484375 -19.234375 C 8.097656 -20.148438 9.921875 -20.609375 11.953125 -20.609375 C 13.679688 -20.609375 15.257812 -20.265625 16.6875 -19.578125 C 18.113281 -18.898438 19.300781 -17.941406 20.25 -16.703125 C 21.207031 -15.460938 21.84375 -14.03125 22.15625 -12.40625 L 16.78125 -12.40625 C 16.332031 -13.394531 15.679688 -14.160156 14.828125 -14.703125 C 13.972656 -15.242188 13.003906 -15.515625 11.921875 -15.515625 C 10.953125 -15.515625 10.078125 -15.273438 9.296875 -14.796875 C 8.515625 -14.316406 7.898438 -13.664062 7.453125 -12.84375 C 7.015625 -12.03125 6.796875 -11.101562 6.796875 -10.0625 C 6.796875 -9.019531 7.015625 -8.082031 7.453125 -7.25 C 7.898438 -6.425781 8.515625 -5.765625 9.296875 -5.265625 C 10.078125 -4.773438 10.953125 -4.53125 11.921875 -4.53125 C 13.035156 -4.53125 14.003906 -4.820312 14.828125 -5.40625 C 15.660156 -5.988281 16.3125 -6.820312 16.78125 -7.90625 L 22.234375 -7.90625 C 21.910156 -6.226562 21.265625 -4.75 20.296875 -3.46875 C 19.335938 -2.195312 18.140625 -1.207031 16.703125 -0.5 C 15.265625 0.207031 13.671875 0.5625 11.921875 0.5625 Z M 11.921875 0.5625 "/></g></g></g></svg>